<svg xmlns="http://www.w3.org/2000/svg" viewBox="0 0 400 130" width="400" height="130">
    <path d="M39.7 130l-28.4-78.7c-1.4-4-4.1-6.8-8.1-8.4l-3.2-1v-1.9h45.2v1.9l-2.8.7c-4.8 1.5-6.4 4.5-4.8 8.9l17.2 52.6 15.3-40.9-3.5-10.6c-.9-2.7-1.8-4.8-2.7-6.2-.9-1.4-2.1-2.4-3.6-3.1l-3.1-1.5v-1.8h38.2v1.9l-2.6 1.1c-1.8.7-3 1.7-3.3 3-.4 1.2-.1 3.1.7 5.6l17 51.7 17.5-51.3c1.7-4.7.8-7.7-2.8-8.9l-4.1-1.1v-2h22.2v1.9l-4.4 1.3c-2.1.6-3.6 1.6-4.5 2.9-.9 1.3-1.8 3.1-2.5 5.3l-26.6 78.6h-9.4l-20.5-60.8-21.7 60.8h-10.7zM154.4 122l-1.1-2.7c4.3-2.7 7.6-5.9 9.8-9.6 2.2-3.7 3.8-8.4 4.7-14l-6.3-2.7c-3.7-1.8-6.5-4.1-8.5-6.9-2-2.8-3-5.7-3-8.6 0-4.4 1.5-8.1 4.4-11.1 2.9-3 6.7-4.5 11.4-4.5 4.8 0 8.7 1.7 11.7 5 3 3.4 4.5 8.2 4.5 14.5 0 7-1.4 13.2-4.3 18.7s-6.4 10.1-10.6 13.9c-4.1 3.9-8.4 6.5-12.7 8zM194 130v-1.9l2.6-.7c4.3-1.2 6.5-4.3 6.5-9.1v-58c0-2.7-.4-4.7-1.3-6-.9-1.3-2.5-2.2-5-2.7l-2.8-.7v-1.9l31.7-10.8 1.9 1.9 1.5 11.1c4.3-3.8 9.2-7 14.7-9.5 5.4-2.5 10.8-3.7 16.1-3.7 8.2 0 14.4 2.2 18.8 6.7s6.6 11.3 6.6 20.4v53.4c0 4.8 2.3 7.9 7 9.1l1.7.6v1.9h-43.8v-1.9l2.4-.7c4.3-1.4 6.5-4.4 6.5-9.1v-59.3c0-7.9-4-11.9-11.9-11.9-5.4 0-11.4 2.7-17.8 8.2v63.1c0 4.8 2.2 7.9 6.5 9.1l1.7.6v1.9h-43.6zM299 130v-1.9l2.8-.9c4.2-1.4 6.3-4.4 6.3-9.1v-99.2c0-2.5-.5-4.3-1.5-5.6-1-1.2-2.7-2.2-5.2-3l-2.4-.5v-1.8l33.8-8 2.2 1.7-.6 26v90.5c0 4.9 2 8 6.1 9.3l2.6.7v1.9h-44.1zm68.5 0l-32.9-46.4 34.2-31.7c1.6-1.5 2.6-3.1 2.9-4.7.3-1.7-.8-2.9-3.2-3.6l-3.1-.9v-1.9h27.5v1.9l-5.5 1.5c-2.7.9-4.9 1.9-6.6 3.1-1.7 1.2-3.7 2.8-6 4.9l-20.8 19.4 33.1 46.2c2 2.7 3.8 4.8 5.5 6.3 1.7 1.5 3.9 2.7 6.6 3.7l.7.4v1.9h-32.4zM166 32c-4.5 0-8.3-1.5-11.3-4.7-3.1-3.1-4.7-6.8-4.7-11.2 0-4.3 1.5-8.1 4.7-11.3 3-3.2 6.8-4.8 11.3-4.8 4.5 0 8.2 1.6 11.3 4.8 3.1 3.2 4.7 7 4.7 11.3 0 4.3-1.6 8.1-4.7 11.2-3.1 3.2-6.8 4.7-11.3 4.7z"/>
</svg>
